<svg width="35" height="32" viewBox="0 0 35 32" fill="none" xmlns="http://www.w3.org/2000/svg">
    <g clip-path="url(#clip0_3302_2)">
        <path d="M4.46167 12.8261V29.8461C4.46167 30.1521 4.58324 30.4456 4.79964 30.662C5.01604 30.8784 5.30954 31 5.61557 31H12.5389V21.1919C12.5389 20.7328 12.7213 20.2926 13.0459 19.968C13.3705 19.6434 13.8107 19.461 14.2698 19.461H20.0393C20.4983 19.461 20.9386 19.6434 21.2631 19.968C21.5877 20.2926 21.7701 20.7328 21.7701 21.1919V31H28.6935C28.9995 31 29.293 30.8784 29.5094 30.662C29.7258 30.4456 29.8474 30.1521 29.8474 29.8461V12.8261"
              stroke-linecap="round" stroke-linejoin="round"/>
        <path d="M33.309 15.9994L17.9399 1.28721C17.5793 0.90643 16.7362 0.902103 16.3692 1.28721L1 15.9994"
              stroke-linecap="round" stroke-linejoin="round"/>
        <path d="M27.5396 10.4462V2.15265H24.0779V7.12882" stroke-linecap="round" stroke-linejoin="round"/>
    </g>
    <defs>
        <clipPath id="clip0_3302_2">
            <rect width="35" height="32" fill="white"/>
        </clipPath>
    </defs>
</svg>
